<mxfile host="app.diagrams.net" agent="Mozilla/5.0 (Windows NT 10.0; Win64; x64) AppleWebKit/537.36 (KHTML, like Gecko) Chrome/135.0.0.0 Safari/537.36" version="26.2.14">
  <diagram name="Page-1" id="G8yHRENdgAMQKa-0pqYu">
    <mxGraphModel dx="1737" dy="878" grid="1" gridSize="10" guides="1" tooltips="1" connect="1" arrows="1" fold="1" page="1" pageScale="1" pageWidth="827" pageHeight="1169" math="0" shadow="0">
      <root>
        <mxCell id="0" />
        <mxCell id="1" parent="0" />
        <mxCell id="Xb3tZAt4RDjEGvtumP-L-3" value="" style="edgeStyle=orthogonalEdgeStyle;rounded=0;orthogonalLoop=1;jettySize=auto;html=1;" edge="1" parent="1" source="Xb3tZAt4RDjEGvtumP-L-1" target="Xb3tZAt4RDjEGvtumP-L-2">
          <mxGeometry relative="1" as="geometry" />
        </mxCell>
        <mxCell id="Xb3tZAt4RDjEGvtumP-L-1" value="Start" style="ellipse;whiteSpace=wrap;html=1;" vertex="1" parent="1">
          <mxGeometry x="190" y="20" width="120" height="80" as="geometry" />
        </mxCell>
        <mxCell id="Xb3tZAt4RDjEGvtumP-L-5" value="" style="edgeStyle=orthogonalEdgeStyle;rounded=0;orthogonalLoop=1;jettySize=auto;html=1;" edge="1" parent="1" source="Xb3tZAt4RDjEGvtumP-L-2" target="Xb3tZAt4RDjEGvtumP-L-4">
          <mxGeometry relative="1" as="geometry" />
        </mxCell>
        <mxCell id="Xb3tZAt4RDjEGvtumP-L-2" value="Admin Opens &quot;View Pending Reports Section&quot;" style="whiteSpace=wrap;html=1;" vertex="1" parent="1">
          <mxGeometry x="190" y="140" width="120" height="60" as="geometry" />
        </mxCell>
        <mxCell id="Xb3tZAt4RDjEGvtumP-L-7" value="" style="edgeStyle=orthogonalEdgeStyle;rounded=0;orthogonalLoop=1;jettySize=auto;html=1;" edge="1" parent="1" source="Xb3tZAt4RDjEGvtumP-L-4" target="Xb3tZAt4RDjEGvtumP-L-6">
          <mxGeometry relative="1" as="geometry" />
        </mxCell>
        <mxCell id="Xb3tZAt4RDjEGvtumP-L-4" value="View Report Details" style="whiteSpace=wrap;html=1;" vertex="1" parent="1">
          <mxGeometry x="190" y="240" width="120" height="60" as="geometry" />
        </mxCell>
        <mxCell id="Xb3tZAt4RDjEGvtumP-L-9" value="" style="edgeStyle=orthogonalEdgeStyle;rounded=0;orthogonalLoop=1;jettySize=auto;html=1;" edge="1" parent="1" source="Xb3tZAt4RDjEGvtumP-L-6" target="Xb3tZAt4RDjEGvtumP-L-8">
          <mxGeometry relative="1" as="geometry" />
        </mxCell>
        <mxCell id="Xb3tZAt4RDjEGvtumP-L-6" value="View Report Images" style="whiteSpace=wrap;html=1;" vertex="1" parent="1">
          <mxGeometry x="190" y="330" width="120" height="60" as="geometry" />
        </mxCell>
        <mxCell id="Xb3tZAt4RDjEGvtumP-L-11" value="" style="edgeStyle=orthogonalEdgeStyle;rounded=0;orthogonalLoop=1;jettySize=auto;html=1;" edge="1" parent="1" source="Xb3tZAt4RDjEGvtumP-L-8" target="Xb3tZAt4RDjEGvtumP-L-10">
          <mxGeometry relative="1" as="geometry" />
        </mxCell>
        <mxCell id="Xb3tZAt4RDjEGvtumP-L-8" value="View Summarized Pdf Report Generated By AI" style="whiteSpace=wrap;html=1;" vertex="1" parent="1">
          <mxGeometry x="190" y="420" width="120" height="60" as="geometry" />
        </mxCell>
        <mxCell id="Xb3tZAt4RDjEGvtumP-L-15" value="" style="edgeStyle=orthogonalEdgeStyle;rounded=0;orthogonalLoop=1;jettySize=auto;html=1;entryX=0.5;entryY=0;entryDx=0;entryDy=0;" edge="1" parent="1" source="Xb3tZAt4RDjEGvtumP-L-10" target="Xb3tZAt4RDjEGvtumP-L-17">
          <mxGeometry relative="1" as="geometry">
            <mxPoint x="380" y="570" as="targetPoint" />
            <Array as="points">
              <mxPoint x="390" y="570" />
            </Array>
          </mxGeometry>
        </mxCell>
        <mxCell id="Xb3tZAt4RDjEGvtumP-L-16" value="Approve" style="edgeLabel;html=1;align=center;verticalAlign=middle;resizable=0;points=[];" vertex="1" connectable="0" parent="Xb3tZAt4RDjEGvtumP-L-15">
          <mxGeometry x="-0.0994" relative="1" as="geometry">
            <mxPoint as="offset" />
          </mxGeometry>
        </mxCell>
        <mxCell id="Xb3tZAt4RDjEGvtumP-L-34" value="" style="edgeStyle=orthogonalEdgeStyle;rounded=0;orthogonalLoop=1;jettySize=auto;html=1;" edge="1" parent="1" source="Xb3tZAt4RDjEGvtumP-L-10" target="Xb3tZAt4RDjEGvtumP-L-33">
          <mxGeometry relative="1" as="geometry" />
        </mxCell>
        <mxCell id="Xb3tZAt4RDjEGvtumP-L-35" value="Reject" style="edgeLabel;html=1;align=center;verticalAlign=middle;resizable=0;points=[];" vertex="1" connectable="0" parent="Xb3tZAt4RDjEGvtumP-L-34">
          <mxGeometry x="-0.0593" y="3" relative="1" as="geometry">
            <mxPoint as="offset" />
          </mxGeometry>
        </mxCell>
        <mxCell id="Xb3tZAt4RDjEGvtumP-L-47" value="" style="edgeStyle=orthogonalEdgeStyle;rounded=0;orthogonalLoop=1;jettySize=auto;html=1;" edge="1" parent="1" source="Xb3tZAt4RDjEGvtumP-L-10" target="Xb3tZAt4RDjEGvtumP-L-46">
          <mxGeometry relative="1" as="geometry" />
        </mxCell>
        <mxCell id="Xb3tZAt4RDjEGvtumP-L-48" value="Reupload" style="edgeLabel;html=1;align=center;verticalAlign=middle;resizable=0;points=[];" vertex="1" connectable="0" parent="Xb3tZAt4RDjEGvtumP-L-47">
          <mxGeometry x="-0.2152" y="-2" relative="1" as="geometry">
            <mxPoint x="1" as="offset" />
          </mxGeometry>
        </mxCell>
        <mxCell id="Xb3tZAt4RDjEGvtumP-L-10" value="Report Status" style="rhombus;whiteSpace=wrap;html=1;" vertex="1" parent="1">
          <mxGeometry x="195" y="530" width="110" height="80" as="geometry" />
        </mxCell>
        <mxCell id="Xb3tZAt4RDjEGvtumP-L-22" value="" style="edgeStyle=orthogonalEdgeStyle;rounded=0;orthogonalLoop=1;jettySize=auto;html=1;entryX=0;entryY=0.5;entryDx=0;entryDy=0;" edge="1" parent="1" source="Xb3tZAt4RDjEGvtumP-L-17" target="Xb3tZAt4RDjEGvtumP-L-24">
          <mxGeometry relative="1" as="geometry">
            <mxPoint x="514" y="625" as="targetPoint" />
          </mxGeometry>
        </mxCell>
        <mxCell id="Xb3tZAt4RDjEGvtumP-L-23" value="Website" style="edgeLabel;html=1;align=center;verticalAlign=middle;resizable=0;points=[];" vertex="1" connectable="0" parent="Xb3tZAt4RDjEGvtumP-L-22">
          <mxGeometry x="-0.1538" y="-1" relative="1" as="geometry">
            <mxPoint as="offset" />
          </mxGeometry>
        </mxCell>
        <mxCell id="Xb3tZAt4RDjEGvtumP-L-40" value="" style="edgeStyle=orthogonalEdgeStyle;rounded=0;orthogonalLoop=1;jettySize=auto;html=1;" edge="1" parent="1" source="Xb3tZAt4RDjEGvtumP-L-17" target="Xb3tZAt4RDjEGvtumP-L-39">
          <mxGeometry relative="1" as="geometry" />
        </mxCell>
        <mxCell id="Xb3tZAt4RDjEGvtumP-L-45" value="Mobile App" style="edgeLabel;html=1;align=center;verticalAlign=middle;resizable=0;points=[];" vertex="1" connectable="0" parent="Xb3tZAt4RDjEGvtumP-L-40">
          <mxGeometry x="0.1294" y="5" relative="1" as="geometry">
            <mxPoint as="offset" />
          </mxGeometry>
        </mxCell>
        <mxCell id="Xb3tZAt4RDjEGvtumP-L-17" value="Admin Device" style="rhombus;whiteSpace=wrap;html=1;" vertex="1" parent="1">
          <mxGeometry x="350" y="585" width="80" height="80" as="geometry" />
        </mxCell>
        <mxCell id="Xb3tZAt4RDjEGvtumP-L-26" value="" style="edgeStyle=orthogonalEdgeStyle;rounded=0;orthogonalLoop=1;jettySize=auto;html=1;" edge="1" parent="1" source="Xb3tZAt4RDjEGvtumP-L-24" target="Xb3tZAt4RDjEGvtumP-L-25">
          <mxGeometry relative="1" as="geometry" />
        </mxCell>
        <mxCell id="Xb3tZAt4RDjEGvtumP-L-27" value="Success" style="edgeLabel;html=1;align=center;verticalAlign=middle;resizable=0;points=[];" vertex="1" connectable="0" parent="Xb3tZAt4RDjEGvtumP-L-26">
          <mxGeometry x="-0.248" relative="1" as="geometry">
            <mxPoint as="offset" />
          </mxGeometry>
        </mxCell>
        <mxCell id="Xb3tZAt4RDjEGvtumP-L-29" value="" style="edgeStyle=orthogonalEdgeStyle;rounded=0;orthogonalLoop=1;jettySize=auto;html=1;" edge="1" parent="1" source="Xb3tZAt4RDjEGvtumP-L-24" target="Xb3tZAt4RDjEGvtumP-L-28">
          <mxGeometry relative="1" as="geometry" />
        </mxCell>
        <mxCell id="Xb3tZAt4RDjEGvtumP-L-30" value="Failure" style="edgeLabel;html=1;align=center;verticalAlign=middle;resizable=0;points=[];" vertex="1" connectable="0" parent="Xb3tZAt4RDjEGvtumP-L-29">
          <mxGeometry x="-0.4491" relative="1" as="geometry">
            <mxPoint as="offset" />
          </mxGeometry>
        </mxCell>
        <mxCell id="Xb3tZAt4RDjEGvtumP-L-24" value="OTP Verification" style="rhombus;whiteSpace=wrap;html=1;" vertex="1" parent="1">
          <mxGeometry x="510" y="585" width="80" height="80" as="geometry" />
        </mxCell>
        <mxCell id="Xb3tZAt4RDjEGvtumP-L-25" value="Report Approved" style="whiteSpace=wrap;html=1;" vertex="1" parent="1">
          <mxGeometry x="490" y="755" width="120" height="60" as="geometry" />
        </mxCell>
        <mxCell id="Xb3tZAt4RDjEGvtumP-L-31" style="edgeStyle=orthogonalEdgeStyle;rounded=0;orthogonalLoop=1;jettySize=auto;html=1;entryX=0.5;entryY=0;entryDx=0;entryDy=0;" edge="1" parent="1" source="Xb3tZAt4RDjEGvtumP-L-28" target="Xb3tZAt4RDjEGvtumP-L-24">
          <mxGeometry relative="1" as="geometry">
            <Array as="points">
              <mxPoint x="700" y="565" />
              <mxPoint x="550" y="565" />
            </Array>
          </mxGeometry>
        </mxCell>
        <mxCell id="Xb3tZAt4RDjEGvtumP-L-32" value="3 Attempts" style="edgeLabel;html=1;align=center;verticalAlign=middle;resizable=0;points=[];" vertex="1" connectable="0" parent="Xb3tZAt4RDjEGvtumP-L-31">
          <mxGeometry x="0.0067" y="-4" relative="1" as="geometry">
            <mxPoint as="offset" />
          </mxGeometry>
        </mxCell>
        <mxCell id="Xb3tZAt4RDjEGvtumP-L-56" style="edgeStyle=orthogonalEdgeStyle;rounded=0;orthogonalLoop=1;jettySize=auto;html=1;entryX=1;entryY=0.5;entryDx=0;entryDy=0;" edge="1" parent="1" source="Xb3tZAt4RDjEGvtumP-L-28" target="Xb3tZAt4RDjEGvtumP-L-51">
          <mxGeometry relative="1" as="geometry">
            <Array as="points">
              <mxPoint x="710" y="940" />
            </Array>
          </mxGeometry>
        </mxCell>
        <mxCell id="Xb3tZAt4RDjEGvtumP-L-57" value="After 3 Attempts" style="edgeLabel;html=1;align=center;verticalAlign=middle;resizable=0;points=[];" vertex="1" connectable="0" parent="Xb3tZAt4RDjEGvtumP-L-56">
          <mxGeometry x="-0.3873" relative="1" as="geometry">
            <mxPoint as="offset" />
          </mxGeometry>
        </mxCell>
        <mxCell id="Xb3tZAt4RDjEGvtumP-L-28" value="Ask For Resend" style="whiteSpace=wrap;html=1;" vertex="1" parent="1">
          <mxGeometry x="650" y="595" width="120" height="60" as="geometry" />
        </mxCell>
        <mxCell id="Xb3tZAt4RDjEGvtumP-L-33" value="Report Submission Rejected" style="whiteSpace=wrap;html=1;" vertex="1" parent="1">
          <mxGeometry x="190" y="700" width="120" height="60" as="geometry" />
        </mxCell>
        <mxCell id="Xb3tZAt4RDjEGvtumP-L-42" value="" style="edgeStyle=orthogonalEdgeStyle;rounded=0;orthogonalLoop=1;jettySize=auto;html=1;entryX=0.5;entryY=1;entryDx=0;entryDy=0;exitX=0.5;exitY=1;exitDx=0;exitDy=0;" edge="1" parent="1" source="Xb3tZAt4RDjEGvtumP-L-39" target="Xb3tZAt4RDjEGvtumP-L-25">
          <mxGeometry relative="1" as="geometry">
            <mxPoint x="413.9976190476188" y="900.0000000000002" as="sourcePoint" />
            <mxPoint x="530.95" y="879.9999999999998" as="targetPoint" />
            <Array as="points">
              <mxPoint x="390" y="900" />
              <mxPoint x="550" y="900" />
            </Array>
          </mxGeometry>
        </mxCell>
        <mxCell id="Xb3tZAt4RDjEGvtumP-L-44" value="Success" style="edgeLabel;html=1;align=center;verticalAlign=middle;resizable=0;points=[];" vertex="1" connectable="0" parent="Xb3tZAt4RDjEGvtumP-L-42">
          <mxGeometry x="-0.1897" y="-5" relative="1" as="geometry">
            <mxPoint as="offset" />
          </mxGeometry>
        </mxCell>
        <mxCell id="Xb3tZAt4RDjEGvtumP-L-39" value="Bio-Metric Authentication" style="rhombus;whiteSpace=wrap;html=1;" vertex="1" parent="1">
          <mxGeometry x="340" y="750" width="100" height="105" as="geometry" />
        </mxCell>
        <mxCell id="Xb3tZAt4RDjEGvtumP-L-52" style="edgeStyle=orthogonalEdgeStyle;rounded=0;orthogonalLoop=1;jettySize=auto;html=1;entryX=0;entryY=0.5;entryDx=0;entryDy=0;exitX=0.5;exitY=1;exitDx=0;exitDy=0;" edge="1" parent="1" source="Xb3tZAt4RDjEGvtumP-L-46" target="Xb3tZAt4RDjEGvtumP-L-51">
          <mxGeometry relative="1" as="geometry">
            <mxPoint x="80" y="770.0000000000002" as="sourcePoint" />
            <mxPoint x="150.0000000000016" y="979.9999999999998" as="targetPoint" />
            <Array as="points">
              <mxPoint x="80" y="940" />
            </Array>
          </mxGeometry>
        </mxCell>
        <mxCell id="Xb3tZAt4RDjEGvtumP-L-46" value="Report Marked As Reupload" style="whiteSpace=wrap;html=1;" vertex="1" parent="1">
          <mxGeometry x="20" y="700" width="120" height="60" as="geometry" />
        </mxCell>
        <mxCell id="Xb3tZAt4RDjEGvtumP-L-51" value="End" style="ellipse;whiteSpace=wrap;html=1;" vertex="1" parent="1">
          <mxGeometry x="210" y="900" width="120" height="80" as="geometry" />
        </mxCell>
        <mxCell id="Xb3tZAt4RDjEGvtumP-L-54" style="edgeStyle=orthogonalEdgeStyle;rounded=0;orthogonalLoop=1;jettySize=auto;html=1;entryX=0.5;entryY=0;entryDx=0;entryDy=0;exitX=0;exitY=0.5;exitDx=0;exitDy=0;" edge="1" parent="1" source="Xb3tZAt4RDjEGvtumP-L-39">
          <mxGeometry relative="1" as="geometry">
            <mxPoint x="385.71428571428567" y="840" as="sourcePoint" />
            <mxPoint x="280" y="900" as="targetPoint" />
            <Array as="points">
              <mxPoint x="340" y="800" />
              <mxPoint x="280" y="800" />
            </Array>
          </mxGeometry>
        </mxCell>
        <mxCell id="Xb3tZAt4RDjEGvtumP-L-55" value="Failure" style="edgeLabel;html=1;align=center;verticalAlign=middle;resizable=0;points=[];" vertex="1" connectable="0" parent="Xb3tZAt4RDjEGvtumP-L-54">
          <mxGeometry x="0.212" y="6" relative="1" as="geometry">
            <mxPoint as="offset" />
          </mxGeometry>
        </mxCell>
        <mxCell id="Xb3tZAt4RDjEGvtumP-L-58" value="After 3&amp;nbsp;&lt;div&gt;Attempts&lt;/div&gt;" style="edgeLabel;html=1;align=center;verticalAlign=middle;resizable=0;points=[];" vertex="1" connectable="0" parent="Xb3tZAt4RDjEGvtumP-L-54">
          <mxGeometry x="-0.5953" relative="1" as="geometry">
            <mxPoint as="offset" />
          </mxGeometry>
        </mxCell>
        <mxCell id="Xb3tZAt4RDjEGvtumP-L-60" style="edgeStyle=orthogonalEdgeStyle;rounded=0;orthogonalLoop=1;jettySize=auto;html=1;entryX=0.338;entryY=0.042;entryDx=0;entryDy=0;entryPerimeter=0;" edge="1" parent="1" source="Xb3tZAt4RDjEGvtumP-L-33" target="Xb3tZAt4RDjEGvtumP-L-51">
          <mxGeometry relative="1" as="geometry" />
        </mxCell>
      </root>
    </mxGraphModel>
  </diagram>
</mxfile>
